# xmcd
#
# Track frame offsets:
#	150
#	25738
#	45186
#	66227
#	79534
#	96671
#	114908
#	132797
#	153692
#	168590
#	189112
#	203213
#	218352
#	238450
#	253444
#	269602
#
# Disc length: 3796 seconds
#
# Revision: 0
# Processed by: cddbd v1.5.2PL0 Copyright (c) Steve Scherf et al.
# Submitted via: EZCDAudioConverter 3.1.2.1
#
DISCID=e10ed210
DTITLE=John Trudell and Bad Dog - Wazi's Dream
DYEAR=2015
DGENRE=Spoken Word
TTITLE0=Wazi's Dream
TTITLE1=When Not To Lie
TTITLE2=Coyote's Blues
TTITLE3=Yesterday Calling
TTITLE4=Tattooed Purple Butterfly
TTITLE5=Like Sparkle Dust
TTITLE6=Some Color Blues
TTITLE7=Humbler And The Arrogant's
TTITLE8=My My
TTITLE9=Earthling
TTITLE10=Chasing The Cat
TTITLE11=Mirrors
TTITLE12=Laughter Waiting
TTITLE13=Valentine
TTITLE14=Heavy Rain
TTITLE15=Stone People
EXTD=
EXTT0=
EXTT1=
EXTT2=
EXTT3=
EXTT4=
EXTT5=
EXTT6=
EXTT7=
EXTT8=
EXTT9=
EXTT10=
EXTT11=
EXTT12=
EXTT13=
EXTT14=
EXTT15=
PLAYORDER=
